o WireCollider
v 0.0028640349820122104 0.00099237272322969319 -0.0017500000000000005
v -0.0014838313292458221 0.013203476751801169 -0.0017500000000000005
v -0.0014838313292458226 0.013203476751801167 0.0017500000000000016
v 0.00286403498201221 0.000992372723229693 0.0017500000000000016
v -0.0039782716049382716 0.011481481481481478 0.0035
v -4.0498990228405734E-19 -1.4032682377635983E-19 0.0035
v -0.0064727118806307219 0.0097594862111617942 0.0017499999999999992
v -0.0028640349820122108 -0.00099237272322969341 0.0017499999999999992
v -0.006472711880630721 0.0097594862111617942 -0.0017500000000000005
v -0.0028640349820122104 -0.00099237272322969319 -0.0017500000000000005
v -0.0039782716049382716 0.011481481481481481 -0.0035
v 0 0 -0.0035
v -0.008891033955191972 0.014798780019006308 -0.0017500000000000005
v -0.0088910339551919737 0.014798780019006304 0.0017500000000000016
v -0.0081817283950617273 0.011851851851851851 0.0035
v -0.007472422834931481 0.0089049236846973946 0.0017499999999999992
v -0.0074724228349314827 0.0089049236846973946 -0.0017500000000000005
v -0.0081817283950617273 0.011851851851851851 -0.0035
v -0.011269807104718258 0.012809969282208279 -0.0017500000000000005
v -0.011269807104718258 0.012809969282208279 0.0017500000000000016
v -0.010133333333333329 0.0099999999999999967 0.0035
v -0.0089968595619484039 0.0071900307177917185 0.0017499999999999992
v -0.0089968595619484039 0.0071900307177917185 -0.0017500000000000005
v -0.010133333333333333 0.01 -0.0035
v -0.012760493827160492 0.013031088913245534 -0.0017500000000000005
v -0.012760493827160491 0.013031088913245534 0.0017500000000000016
v -0.012760493827160492 0.01 0.0035
v -0.012760493827160492 0.0069689110867544642 0.0017499999999999992
v -0.012760493827160492 0.0069689110867544651 -0.0017500000000000005
v -0.012760493827160492 0.01 -0.0035
v -0.017639506172839506 0.013031088913245534 -0.0017500000000000005
v -0.017639506172839506 0.013031088913245533 0.0017500000000000016
v -0.017639506172839506 0.0099999999999999985 0.0035
v -0.017639506172839506 0.0069689110867544625 0.0017499999999999992
v -0.017639506172839506 0.0069689110867544634 -0.0017500000000000005
v -0.017639506172839506 0.0099999999999999985 -0.0035
v -0.019130192895281735 0.012809969282208282 -0.0017500000000000005
v -0.019130192895281735 0.012809969282208282 0.0017500000000000016
v -0.020266666666666665 0.010000000000000004 0.0035
v -0.021403140438051596 0.0071900307177917237 0.0017499999999999992
v -0.021403140438051596 0.0071900307177917219 -0.0017500000000000005
v -0.020266666666666665 0.01 -0.0035
v -0.021508966044808026 0.014798780019006308 -0.0017500000000000005
v -0.021508966044808026 0.014798780019006308 0.0017500000000000016
v -0.022218271604938271 0.011851851851851853 0.0035
v -0.022927577165068515 0.0089049236846973964 0.0017499999999999992
v -0.022927577165068515 0.0089049236846973981 -0.0017500000000000005
v -0.022218271604938271 0.011851851851851853 -0.0035
v -0.02891616867075418 0.013203476751801169 -0.0017499999999999998
v -0.02891616867075418 0.013203476751801167 0.0017500000000000022
v -0.026421728395061735 0.011481481481481478 0.0035
v -0.023927288119369287 0.0097594862111617942 0.0017499999999999985
v -0.023927288119369283 0.0097594862111617942 -0.0017500000000000011
v -0.026421728395061728 0.011481481481481481 -0.0035
v -0.033264034982012212 0.00099237272322969341 -0.0017500000000000005
v -0.033264034982012212 0.00099237272322969363 0.0017500000000000016
v -0.030400000000000007 7.2703491421204372E-19 0.0035
v -0.0275359650179878 -0.00099237272322969276 0.0017499999999999992
v -0.027535965017987794 -0.000992372723229693 -0.0017500000000000005
v -0.0304 0 -0.0035
vn 0.81829570914634575 0.28353506377991233 -0.50000000000000011
vn 0.71269722162641425 0.49199864866276782 -0.50000000000000022
vn 0.71269722162641425 0.49199864866276743 0.50000000000000067
vn 0.81829570914634564 0.28353506377991228 0.50000000000000044
vn 0 -9.9127055770103265E-16 1
vn -1.157114006525878E-16 -4.0093378221817093E-17 1
vn -0.71269722162641447 -0.49199864866276782 0.49999999999999983
vn -0.818295709146346 -0.28353506377991239 0.49999999999999978
vn -0.71269722162641425 -0.49199864866276782 -0.50000000000000022
vn -0.81829570914634575 -0.28353506377991233 -0.50000000000000011
vn 0 0 -1
vn -0.20265873146578411 0.84197947632984449 -0.5
vn -0.20265873146578475 0.841979476329844 0.50000000000000067
vn 0 0 1
vn 0.20265873146578464 -0.8419794763298446 0.49999999999999967
vn 0.20265873146578411 -0.84197947632984449 -0.5
vn -0.32470679182426465 0.80284836634522294 -0.50000000000000044
vn -0.3247067918242646 0.80284836634522283 0.50000000000000078
vn 9.9127055770103265E-16 -9.9127055770103265E-16 1
vn 0.32470679182426532 -0.80284836634522316 0.49999999999999961
vn 0.32470679182426521 -0.80284836634522294 -0.49999999999999989
vn 0 0.86602540378443849 -0.50000000000000022
vn 4.9563527885051633E-16 0.86602540378443837 0.50000000000000044
vn 0 -0.86602540378443882 0.49999999999999978
vn 0 -0.8660254037844386 -0.50000000000000011
vn 0 0.8660254037844386 -0.5
vn 0 0.86602540378443837 0.50000000000000044
vn 0.32470679182426565 0.80284836634522283 -0.49999999999999983
vn 0.32470679182426565 0.80284836634522272 0.50000000000000011
vn 0 9.9127055770103265E-16 1
vn -0.32470679182426609 -0.8028483663452225 0.50000000000000011
vn -0.32470679182426593 -0.8028483663452225 -0.50000000000000022
vn 0.2026587314657842 0.84197947632984438 -0.50000000000000022
vn 0.20265873146578417 0.84197947632984427 0.50000000000000044
vn -0.20265873146578417 -0.84197947632984471 0.49999999999999978
vn -0.2026587314657842 -0.84197947632984438 -0.50000000000000022
vn -0.71269722162641458 0.4919986486627676 -0.49999999999999978
vn -0.71269722162641458 0.4919986486627671 0.50000000000000044
vn -1.9825411154020653E-15 -9.9127055770103265E-16 1
vn 0.71269722162641325 -0.49199864866276877 0.50000000000000056
vn 0.71269722162641358 -0.49199864866276827 -0.50000000000000078
vn -0.81829570914634586 0.28353506377991222 -0.49999999999999983
vn -0.81829570914634586 0.28353506377991222 0.50000000000000011
vn -1.9825411154020653E-15 2.0772426120344106E-16 1
vn 0.81829570914634486 -0.28353506377991305 0.50000000000000122
vn 0.81829570914634531 -0.28353506377991261 -0.50000000000000067
g WireCollider
f 1//1 2//2 3//3 4//4
f 4//4 3//3 5//5 6//6
f 6//6 5//5 7//7 8//8
f 8//8 7//7 9//9 10//10
f 10//10 9//9 11//11 12//11
f 12//11 11//11 2//2 1//1
f 2//2 13//12 14//13 3//3
f 3//3 14//13 15//14 5//5
f 5//5 15//14 16//15 7//7
f 7//7 16//15 17//16 9//9
f 9//9 17//16 18//11 11//11
f 11//11 18//11 13//12 2//2
f 13//12 19//17 20//18 14//13
f 14//13 20//18 21//19 15//14
f 15//14 21//19 22//20 16//15
f 16//15 22//20 23//21 17//16
f 17//16 23//21 24//11 18//11
f 18//11 24//11 19//17 13//12
f 19//17 25//22 26//23 20//18
f 20//18 26//23 27//14 21//19
f 21//19 27//14 28//24 22//20
f 22//20 28//24 29//25 23//21
f 23//21 29//25 30//11 24//11
f 24//11 30//11 25//22 19//17
f 25//22 31//26 32//27 26//23
f 26//23 32//27 33//14 27//14
f 27//14 33//14 34//24 28//24
f 28//24 34//24 35//25 29//25
f 29//25 35//25 36//11 30//11
f 30//11 36//11 31//26 25//22
f 31//26 37//28 38//29 32//27
f 32//27 38//29 39//30 33//14
f 33//14 39//30 40//31 34//24
f 34//24 40//31 41//32 35//25
f 35//25 41//32 42//11 36//11
f 36//11 42//11 37//28 31//26
f 37//28 43//33 44//34 38//29
f 38//29 44//34 45//14 39//30
f 39//30 45//14 46//35 40//31
f 40//31 46//35 47//36 41//32
f 41//32 47//36 48//11 42//11
f 42//11 48//11 43//33 37//28
f 43//33 49//37 50//38 44//34
f 44//34 50//38 51//39 45//14
f 45//14 51//39 52//40 46//35
f 46//35 52//40 53//41 47//36
f 47//36 53//41 54//11 48//11
f 48//11 54//11 49//37 43//33
f 49//37 55//42 56//43 50//38
f 50//38 56//43 57//44 51//39
f 51//39 57//44 58//45 52//40
f 52//40 58//45 59//46 53//41
f 53//41 59//46 60//11 54//11
f 54//11 60//11 55//42 49//37
